<?xml version="1.0" encoding="utf-8"?>
<!-- Generator: Adobe Illustrator 23.1.0, SVG Export Plug-In . SVG Version: 6.00 Build 0)  -->
<svg version="1.1" xmlns="http://www.w3.org/2000/svg" xmlns:xlink="http://www.w3.org/1999/xlink" x="0px" y="0px"
	 viewBox="0 0 566.9 141.7" style="enable-background:new 0 0 566.9 141.7;" xml:space="preserve">
<style type="text/css">
	.st0{fill:#010101;}
	.st1{clip-path:url(#SVGID_2_);}
</style>
<g id="user">
	<path class="st0" d="M47.6,37.3c7.7,0,13.9-6.2,13.9-13.9S55.3,9.5,47.6,9.5s-13.9,6.2-13.9,13.9S39.9,37.3,47.6,37.3z M57.3,40.8
		h-1.8c-2.4,1.1-5.1,1.7-7.9,1.7c-2.8,0-5.5-0.6-7.9-1.7h-1.8c-8.1,0-14.6,6.5-14.6,14.6v4.5c0,2.9,2.3,5.2,5.2,5.2h38.3
		c2.9,0,5.2-2.3,5.2-5.2v-4.5C71.9,47.3,65.4,40.8,57.3,40.8z"/>
</g>
<g id="times">
	<g>
		<defs>
			<rect id="SVGID_1_" x="500.4" y="21" width="38.3" height="38.3"/>
		</defs>
		<clipPath id="SVGID_2_">
			<use xlink:href="#SVGID_1_"  style="overflow:visible;"/>
		</clipPath>
		<path class="st1" d="M526.7,40.2l10.9-10.9c1.3-1.3,1.3-3.5,0-4.8l-2.4-2.4c-1.3-1.3-3.5-1.3-4.8,0l-10.9,10.9L508.6,22
			c-1.3-1.3-3.5-1.3-4.8,0l-2.4,2.4c-1.3,1.3-1.3,3.5,0,4.8l10.9,10.9L501.4,51c-1.3,1.3-1.3,3.5,0,4.8l2.4,2.4
			c1.3,1.3,3.5,1.3,4.8,0l10.9-10.9l10.9,10.9c1.3,1.3,3.5,1.3,4.8,0l2.4-2.4c1.3-1.3,1.3-3.5,0-4.8L526.7,40.2z"/>
	</g>
</g>
<g id="cog">
	<path class="st0" d="M471.5,47l-4.6-2.7c0.5-2.5,0.5-5.1,0-7.6l4.6-2.7c0.5-0.3,0.8-0.9,0.6-1.5c-1.2-3.9-3.3-7.4-5.9-10.3
		c-0.4-0.4-1.1-0.6-1.6-0.2l-4.6,2.7c-1.9-1.7-4.2-3-6.6-3.8v-5.3c0-0.6-0.4-1.1-1-1.3c-4-0.9-8.1-0.8-11.9,0c-0.6,0.1-1,0.7-1,1.3
		v5.3c-2.4,0.9-4.7,2.2-6.6,3.8l-4.6-2.7c-0.5-0.3-1.2-0.2-1.6,0.2c-2.7,2.9-4.7,6.4-5.9,10.3c-0.2,0.6,0.1,1.2,0.6,1.5l4.6,2.7
		c-0.5,2.5-0.5,5.1,0,7.6l-4.6,2.7c-0.5,0.3-0.8,0.9-0.6,1.5c1.2,3.9,3.3,7.4,5.9,10.3c0.4,0.4,1.1,0.6,1.6,0.2l4.6-2.7
		c1.9,1.7,4.2,3,6.6,3.8v5.3c0,0.6,0.4,1.1,1,1.3c4,0.9,8.1,0.8,11.9,0c0.6-0.1,1-0.7,1-1.3v-5.3c2.4-0.9,4.7-2.2,6.6-3.8l4.6,2.7
		c0.5,0.3,1.2,0.2,1.6-0.2c2.7-2.9,4.7-6.4,5.9-10.3C472.3,47.9,472.1,47.3,471.5,47z M446.4,49.2c-4.8,0-8.7-3.9-8.7-8.7
		s3.9-8.7,8.7-8.7s8.7,3.9,8.7,8.7S451.2,49.2,446.4,49.2z"/>
</g>
<g id="edit">
	<path class="st0" d="M380,22l9.8,9.8c0.4,0.4,0.4,1.1,0,1.5L366.1,57L356,58.2c-1.3,0.2-2.5-1-2.3-2.3l1.1-10.1L378.5,22
		C378.9,21.6,379.6,21.6,380,22L380,22z M397.6,19.5l-5.3-5.3c-1.7-1.7-4.3-1.7-6,0l-3.8,3.8c-0.4,0.4-0.4,1.1,0,1.5l9.8,9.8
		c0.4,0.4,1.1,0.4,1.5,0l3.8-3.8C399.3,23.9,399.3,21.2,397.6,19.5z M378,50.6v11.1h-34.8V26.9h25c0.3,0,0.7-0.1,0.9-0.4l4.3-4.3
		c0.8-0.8,0.2-2.2-0.9-2.2h-31.1c-2.9,0-5.2,2.3-5.2,5.2v38.3c0,2.9,2.3,5.2,5.2,5.2h38.3c2.9,0,5.2-2.3,5.2-5.2V46.2
		c0-1.2-1.4-1.7-2.2-0.9l-4.3,4.3C378.1,49.9,378,50.2,378,50.6z"/>
</g>
<g id="exclaimation">
	<path class="st0" d="M302.6,59.6c0,4.8-3.9,8.7-8.7,8.7c-4.8,0-8.7-3.9-8.7-8.7c0-4.8,3.9-8.7,8.7-8.7
		C298.7,51,302.6,54.9,302.6,59.6z M286.2,15.4l1.5,29.6c0.1,1.4,1.2,2.5,2.6,2.5h7.2c1.4,0,2.5-1.1,2.6-2.5l1.5-29.6
		c0.1-1.5-1.1-2.7-2.6-2.7h-10.2C287.3,12.7,286.1,13.9,286.2,15.4z"/>
</g>
<g id="filter">
	<path class="st0" d="M244.4,12.3h-50.4c-2.3,0-3.5,2.8-1.8,4.5l20.1,20.1v22.4c0,0.9,0.4,1.6,1.1,2.1l8.7,6.1
		c1.7,1.2,4.1,0,4.1-2.1V36.9l20.1-20.1C247.8,15.1,246.7,12.3,244.4,12.3z"/>
</g>
<g id="folder">
	<path class="st0" d="M167,26.6h-20.9l-7-7h-17.4c-2.9,0-5.2,2.3-5.2,5.2v31.3c0,2.9,2.3,5.2,5.2,5.2H167c2.9,0,5.2-2.3,5.2-5.2
		V31.8C172.2,28.9,169.9,26.6,167,26.6z"/>
</g>
<g id="heart">
	<path class="st0" d="M468.8,88.2c-6-5.1-14.8-4.2-20.3,1.5l-2.1,2.2l-2.1-2.2c-5.5-5.6-14.3-6.6-20.3-1.5
		c-6.8,5.8-7.2,16.3-1.1,22.6l21,21.7c1.4,1.4,3.6,1.4,4.9,0l21-21.7C476,104.4,475.6,94,468.8,88.2L468.8,88.2z"/>
</g>
<g id="redo">
	<path class="st0" d="M76.8,79.7h-5.2c-0.7,0-1.3,0.6-1.3,1.3c0,0,0,0,0,0.1l0.4,9c-5.1-6-12.6-9.5-20.5-9.5c-14.9,0-27,12.1-27,27
		c0,14.9,12.1,26.9,27,26.9c6.7,0,13.1-2.5,18.1-6.9c0.5-0.5,0.6-1.3,0.1-1.8c0,0,0,0,0-0.1l-3.7-3.7c-0.5-0.5-1.3-0.5-1.8-0.1
		c-7.9,7-20,6.2-27-1.7c-7-7.9-6.2-20,1.7-27c7.9-7,20-6.2,27,1.7c0.5,0.6,1.1,1.3,1.5,2l-11-0.5c-0.7,0-1.3,0.5-1.4,1.2
		c0,0,0,0,0,0.1v5.2c0,0.7,0.6,1.3,1.3,1.3h21.8c0.7,0,1.3-0.6,1.3-1.3V81C78.1,80.3,77.5,79.7,76.8,79.7L76.8,79.7z"/>
</g>
<g id="search">
	<path class="st0" d="M551,127.3l-10.8-10.8c-0.5-0.5-1.2-0.8-1.8-0.8h-1.8c3-3.8,4.8-8.7,4.8-13.9c0-12.5-10.1-22.6-22.6-22.6
		c-12.5,0-22.6,10.1-22.6,22.6s10.1,22.6,22.6,22.6c5.2,0,10.1-1.8,13.9-4.8v1.8c0,0.7,0.3,1.4,0.8,1.8l10.8,10.8c1,1,2.7,1,3.7,0
		l3.1-3.1C552,129.9,552,128.3,551,127.3z M518.7,115.7c-7.7,0-13.9-6.2-13.9-13.9c0-7.7,6.2-13.9,13.9-13.9
		c7.7,0,13.9,6.2,13.9,13.9C532.6,109.4,526.4,115.7,518.7,115.7z"/>
</g>
<g id="star">
	<path class="st0" d="M364.5,79.8l-7.1,14.4l-15.9,2.3c-2.8,0.4-4,3.9-1.9,5.9l11.5,11.2l-2.7,15.8c-0.5,2.9,2.5,5,5,3.7l14.2-7.5
		l14.2,7.5c2.5,1.3,5.5-0.8,5-3.7l-2.7-15.8l11.5-11.2c2.1-2,0.9-5.5-1.9-5.9l-15.9-2.3l-7.1-14.4C369.4,77.2,365.7,77.2,364.5,79.8
		L364.5,79.8z"/>
</g>
<g id="bars">
	<path class="st0" d="M121.8,93.1H167c1,0,1.7-0.8,1.7-1.7V87c0-1-0.8-1.7-1.7-1.7h-45.2c-1,0-1.7,0.8-1.7,1.7v4.3
		C120.1,92.3,120.9,93.1,121.8,93.1z M121.8,110.5H167c1,0,1.7-0.8,1.7-1.7v-4.3c0-1-0.8-1.7-1.7-1.7h-45.2c-1,0-1.7,0.8-1.7,1.7
		v4.3C120.1,109.7,120.9,110.5,121.8,110.5z M121.8,127.9H167c1,0,1.7-0.8,1.7-1.7v-4.3c0-1-0.8-1.7-1.7-1.7h-45.2
		c-1,0-1.7,0.8-1.7,1.7v4.3C120.1,127.1,120.9,127.9,121.8,127.9z"/>
</g>
<g id="check">
	<path class="st0" d="M284.9,127.1L266.9,109c-1.1-1.1-1.1-2.8,0-3.9l3.9-3.9c1.1-1.1,2.8-1.1,3.9,0l12.2,12.2L313,87.2
		c1.1-1.1,2.8-1.1,3.9,0l3.9,3.9c1.1,1.1,1.1,2.8,0,3.9l-32,32C287.8,128.1,286,128.1,284.9,127.1L284.9,127.1z"/>
</g>
<g id="chevron-up">
	<path class="st0" d="M221,97.4l21.1,21.1c1,1,1,2.7,0,3.7l-2.5,2.5c-1,1-2.7,1-3.7,0l-16.8-16.7l-16.8,16.7c-1,1-2.7,1-3.7,0
		l-2.5-2.5c-1-1-1-2.7,0-3.7l21.1-21.1C218.3,96.4,220,96.4,221,97.4L221,97.4z"/>
</g>
</svg>
